<svg xmlns="http://www.w3.org/2000/svg" xmlns:xlink="http://www.w3.org/1999/xlink" width="800" zoomAndPan="magnify" viewBox="0 0 600 599.999999" height="800" preserveAspectRatio="xMidYMid meet" version="1.0"><defs><clipPath id="167ee35598"><path d="M 453.484375 523.757812 L 470.953125 523.757812 L 470.953125 547.332031 L 453.484375 547.332031 Z M 453.484375 523.757812 " clip-rule="nonzero"/></clipPath><clipPath id="cc37e625eb"><path d="M 453.492188 547.25 L 453.492188 523.84375 L 470.882812 535.574219 Z M 453.492188 547.25 " clip-rule="nonzero"/></clipPath><clipPath id="9243bd1184"><path d="M 338.558594 522 L 472.742188 522 L 472.742188 549.019531 L 338.558594 549.019531 Z M 338.558594 522 " clip-rule="nonzero"/></clipPath><clipPath id="0d362f9fce"><path d="M 471.886719 534.101562 L 454.492188 522.371094 C 453.960938 522.015625 453.253906 521.957031 452.664062 522.253906 C 452.078125 522.546875 451.722656 523.136719 451.722656 523.785156 L 451.722656 533.75 L 338.558594 533.75 L 338.558594 537.285156 L 451.722656 537.285156 L 451.722656 547.25 C 451.722656 547.898438 452.078125 548.488281 452.664062 548.78125 C 452.902344 548.898438 453.195312 549.019531 453.492188 549.019531 C 453.84375 549.019531 454.199219 548.898438 454.492188 548.722656 L 471.886719 536.992188 C 472.355469 536.636719 472.652344 536.105469 472.652344 535.515625 C 472.652344 534.925781 472.355469 534.398438 471.886719 534.101562 Z M 455.261719 543.949219 L 455.261719 527.144531 L 467.699219 535.515625 Z M 455.261719 543.949219 " clip-rule="nonzero"/></clipPath><clipPath id="1f14a07527"><path d="M 572.371094 211 L 589.84375 211 L 589.84375 234.53125 L 572.371094 234.53125 Z M 572.371094 211 " clip-rule="nonzero"/></clipPath><clipPath id="57eba3fd27"><path d="M 572.398438 234.449219 L 572.398438 211.042969 L 589.789062 222.773438 Z M 572.398438 234.449219 " clip-rule="nonzero"/></clipPath><clipPath id="2c6889595e"><path d="M 371.253906 209.167969 L 591.632812 209.167969 L 591.632812 236.214844 L 371.253906 236.214844 Z M 371.253906 209.167969 " clip-rule="nonzero"/></clipPath><clipPath id="07beb12b6f"><path d="M 590.792969 221.300781 L 573.398438 209.570312 C 572.867188 209.214844 572.160156 209.15625 571.570312 209.449219 C 570.984375 209.746094 570.628906 210.335938 570.628906 210.984375 L 570.628906 220.945312 L 371.253906 220.945312 L 371.253906 224.484375 L 570.628906 224.484375 L 570.628906 234.449219 C 570.628906 235.097656 570.984375 235.683594 571.570312 235.980469 C 571.808594 236.097656 572.101562 236.214844 572.398438 236.214844 C 572.75 236.214844 573.105469 236.097656 573.398438 235.921875 L 590.792969 224.1875 C 591.261719 223.835938 591.558594 223.304688 591.558594 222.714844 C 591.558594 222.125 591.261719 221.59375 590.792969 221.300781 Z M 574.167969 231.144531 L 574.167969 214.34375 L 586.605469 222.714844 Z M 574.167969 231.144531 " clip-rule="nonzero"/></clipPath><clipPath id="d064aa5229"><path d="M 572.371094 367 L 589.84375 367 L 589.84375 390.515625 L 572.371094 390.515625 Z M 572.371094 367 " clip-rule="nonzero"/></clipPath><clipPath id="a33196a837"><path d="M 572.398438 390.429688 L 572.398438 367.023438 L 589.789062 378.757812 Z M 572.398438 390.429688 " clip-rule="nonzero"/></clipPath><clipPath id="96926d3a83"><path d="M 371.253906 365.152344 L 591.632812 365.152344 L 591.632812 392.199219 L 371.253906 392.199219 Z M 371.253906 365.152344 " clip-rule="nonzero"/></clipPath><clipPath id="2710b702fe"><path d="M 590.792969 377.28125 L 573.398438 365.550781 C 572.867188 365.195312 572.160156 365.136719 571.570312 365.433594 C 570.984375 365.726562 570.628906 366.316406 570.628906 366.964844 L 570.628906 376.929688 L 371.253906 376.929688 L 371.253906 380.464844 L 570.628906 380.464844 L 570.628906 390.429688 C 570.628906 391.078125 570.984375 391.667969 571.570312 391.960938 C 571.808594 392.078125 572.101562 392.199219 572.398438 392.199219 C 572.75 392.199219 573.105469 392.078125 573.398438 391.902344 L 590.792969 380.171875 C 591.261719 379.816406 591.558594 379.285156 591.558594 378.699219 C 591.558594 378.109375 591.261719 377.578125 590.792969 377.28125 Z M 574.167969 387.128906 L 574.167969 370.324219 L 586.605469 378.699219 Z M 574.167969 387.128906 " clip-rule="nonzero"/></clipPath><clipPath id="cd1a7c4425"><path d="M 258.089844 64.394531 L 261.59375 64.394531 L 261.59375 535.640625 L 258.089844 535.640625 Z M 258.089844 64.394531 " clip-rule="nonzero"/></clipPath><clipPath id="31e6942b26"><path d="M 10.144531 367 L 27.617188 367 L 27.617188 390.507812 L 10.144531 390.507812 Z M 10.144531 367 " clip-rule="nonzero"/></clipPath><clipPath id="19331d08a6"><path d="M 27.59375 367.015625 L 27.59375 390.421875 L 10.199219 378.691406 Z M 27.59375 367.015625 " clip-rule="nonzero"/></clipPath><clipPath id="2dfaddd2b0"><path d="M 8.355469 365.246094 L 228.734375 365.246094 L 228.734375 392.296875 L 8.355469 392.296875 Z M 8.355469 365.246094 " clip-rule="nonzero"/></clipPath><clipPath id="847d6bd784"><path d="M 9.199219 380.164062 L 26.589844 391.894531 C 27.121094 392.25 27.828125 392.308594 28.417969 392.011719 C 29.007812 391.71875 29.359375 391.128906 29.359375 390.480469 L 29.359375 380.515625 L 228.734375 380.515625 L 228.734375 376.980469 L 29.359375 376.980469 L 29.359375 367.015625 C 29.359375 366.367188 29.007812 365.777344 28.417969 365.484375 C 28.179688 365.367188 27.886719 365.246094 27.59375 365.246094 C 27.238281 365.246094 26.882812 365.367188 26.589844 365.542969 L 9.199219 377.273438 C 8.726562 377.628906 8.429688 378.160156 8.429688 378.75 C 8.429688 379.339844 8.726562 379.867188 9.199219 380.164062 Z M 25.824219 370.316406 L 25.824219 387.121094 L 13.382812 378.75 Z M 25.824219 370.316406 " clip-rule="nonzero"/></clipPath><clipPath id="54de7ebeb3"><path d="M 10.144531 211 L 27.617188 211 L 27.617188 234.523438 L 10.144531 234.523438 Z M 10.144531 211 " clip-rule="nonzero"/></clipPath><clipPath id="08204bbef7"><path d="M 27.59375 211.035156 L 27.59375 234.441406 L 10.199219 222.707031 Z M 27.59375 211.035156 " clip-rule="nonzero"/></clipPath><clipPath id="04a8d7d08e"><path d="M 8.355469 209.265625 L 228.734375 209.265625 L 228.734375 236.3125 L 8.355469 236.3125 Z M 8.355469 209.265625 " clip-rule="nonzero"/></clipPath><clipPath id="fafda5ed95"><path d="M 9.199219 224.183594 L 26.589844 235.914062 C 27.121094 236.265625 27.828125 236.328125 28.417969 236.03125 C 29.007812 235.738281 29.359375 235.148438 29.359375 234.5 L 29.359375 224.535156 L 228.734375 224.535156 L 228.734375 221 L 29.359375 221 L 29.359375 211.035156 C 29.359375 210.386719 29.007812 209.796875 28.417969 209.503906 C 28.179688 209.382812 27.886719 209.265625 27.59375 209.265625 C 27.238281 209.265625 26.882812 209.382812 26.589844 209.5625 L 9.199219 221.292969 C 8.726562 221.648438 8.429688 222.175781 8.429688 222.765625 C 8.429688 223.355469 8.726562 223.886719 9.199219 224.183594 Z M 25.824219 214.335938 L 25.824219 231.136719 L 13.382812 222.765625 Z M 25.824219 214.335938 " clip-rule="nonzero"/></clipPath><clipPath id="d4e6ffda15"><path d="M 338.558594 64.289062 L 342.0625 64.289062 L 342.0625 535.535156 L 338.558594 535.535156 Z M 338.558594 64.289062 " clip-rule="nonzero"/></clipPath><clipPath id="e37b1ef893"><path d="M 453.484375 52.667969 L 470.953125 52.667969 L 470.953125 76.242188 L 453.484375 76.242188 Z M 453.484375 52.667969 " clip-rule="nonzero"/></clipPath><clipPath id="6d1a91e272"><path d="M 453.492188 76.15625 L 453.492188 52.75 L 470.882812 64.484375 Z M 453.492188 76.15625 " clip-rule="nonzero"/></clipPath><clipPath id="fe2fe7f568"><path d="M 338.558594 50.878906 L 472.742188 50.878906 L 472.742188 77.925781 L 338.558594 77.925781 Z M 338.558594 50.878906 " clip-rule="nonzero"/></clipPath><clipPath id="fe46f507be"><path d="M 471.886719 63.007812 L 454.492188 51.277344 C 453.960938 50.921875 453.253906 50.863281 452.664062 51.160156 C 452.078125 51.453125 451.722656 52.042969 451.722656 52.691406 L 451.722656 62.65625 L 338.558594 62.65625 L 338.558594 66.191406 L 451.722656 66.191406 L 451.722656 76.15625 C 451.722656 76.804688 452.078125 77.394531 452.664062 77.6875 C 452.902344 77.804688 453.195312 77.925781 453.492188 77.925781 C 453.84375 77.925781 454.199219 77.804688 454.492188 77.628906 L 471.886719 65.898438 C 472.355469 65.542969 472.652344 65.011719 472.652344 64.425781 C 472.652344 63.835938 472.355469 63.304688 471.886719 63.007812 Z M 455.261719 72.855469 L 455.261719 56.050781 L 467.699219 64.425781 Z M 455.261719 72.855469 " clip-rule="nonzero"/></clipPath><clipPath id="81ddd5c96b"><path d="M 129.035156 52.871094 L 146.507812 52.871094 L 146.507812 76.445312 L 129.035156 76.445312 Z M 129.035156 52.871094 " clip-rule="nonzero"/></clipPath><clipPath id="21ada1c124"><path d="M 146.5 52.953125 L 146.5 76.359375 L 129.109375 64.628906 Z M 146.5 52.953125 " clip-rule="nonzero"/></clipPath><clipPath id="1a488d70fa"><path d="M 127.246094 51.1875 L 261.433594 51.1875 L 261.433594 78.234375 L 127.246094 78.234375 Z M 127.246094 51.1875 " clip-rule="nonzero"/></clipPath><clipPath id="baec23b7bb"><path d="M 128.105469 66.101562 L 145.496094 77.832031 C 146.027344 78.1875 146.734375 78.246094 147.324219 77.953125 C 147.914062 77.65625 148.269531 77.066406 148.269531 76.417969 L 148.269531 66.457031 L 261.433594 66.457031 L 261.433594 62.917969 L 148.269531 62.917969 L 148.269531 52.953125 C 148.269531 52.304688 147.914062 51.714844 147.324219 51.421875 C 147.089844 51.304688 146.792969 51.1875 146.5 51.1875 C 146.144531 51.1875 145.792969 51.304688 145.496094 51.480469 L 128.105469 63.210938 C 127.632812 63.566406 127.339844 64.097656 127.339844 64.6875 C 127.339844 65.277344 127.632812 65.804688 128.105469 66.101562 Z M 144.730469 56.257812 L 144.730469 73.058594 L 132.292969 64.6875 Z M 144.730469 56.257812 " clip-rule="nonzero"/></clipPath><clipPath id="178d77d151"><path d="M 129.035156 523.75 L 146.507812 523.75 L 146.507812 547.324219 L 129.035156 547.324219 Z M 129.035156 523.75 " clip-rule="nonzero"/></clipPath><clipPath id="648fb79aec"><path d="M 146.5 523.835938 L 146.5 547.242188 L 129.109375 535.507812 Z M 146.5 523.835938 " clip-rule="nonzero"/></clipPath><clipPath id="143da418cd"><path d="M 127.246094 522.066406 L 261.433594 522.066406 L 261.433594 549.117188 L 127.246094 549.117188 Z M 127.246094 522.066406 " clip-rule="nonzero"/></clipPath><clipPath id="069b7f7b20"><path d="M 128.105469 536.984375 L 145.496094 548.714844 C 146.027344 549.070312 146.734375 549.128906 147.324219 548.832031 C 147.914062 548.539062 148.269531 547.949219 148.269531 547.300781 L 148.269531 537.335938 L 261.433594 537.335938 L 261.433594 533.800781 L 148.269531 533.800781 L 148.269531 523.835938 C 148.269531 523.1875 147.914062 522.597656 147.324219 522.304688 C 147.089844 522.1875 146.792969 522.066406 146.5 522.066406 C 146.144531 522.066406 145.792969 522.1875 145.496094 522.363281 L 128.105469 534.09375 C 127.632812 534.449219 127.339844 534.980469 127.339844 535.570312 C 127.339844 536.15625 127.632812 536.6875 128.105469 536.984375 Z M 144.730469 527.136719 L 144.730469 543.941406 L 132.292969 535.570312 Z M 144.730469 527.136719 " clip-rule="nonzero"/></clipPath></defs><g clip-path="url(#167ee35598)"><g clip-path="url(#cc37e625eb)"><path fill="#8a8a8a" d="M 338.558594 522.074219 L 472.636719 522.074219 L 472.636719 549.019531 L 338.558594 549.019531 Z M 338.558594 522.074219 " fill-opacity="1" fill-rule="nonzero"/></g></g><g clip-path="url(#9243bd1184)"><g clip-path="url(#0d362f9fce)"><path fill="#8a8a8a" d="M 338.558594 522.074219 L 472.636719 522.074219 L 472.636719 549.019531 L 338.558594 549.019531 Z M 338.558594 522.074219 " fill-opacity="1" fill-rule="nonzero"/></g></g><g clip-path="url(#1f14a07527)"><g clip-path="url(#57eba3fd27)"><path fill="#8a8a8a" d="M 371.253906 209.273438 L 591.527344 209.273438 L 591.527344 236.214844 L 371.253906 236.214844 Z M 371.253906 209.273438 " fill-opacity="1" fill-rule="nonzero"/></g></g><g clip-path="url(#2c6889595e)"><g clip-path="url(#07beb12b6f)"><path fill="#8a8a8a" d="M 371.253906 209.273438 L 591.527344 209.273438 L 591.527344 236.214844 L 371.253906 236.214844 Z M 371.253906 209.273438 " fill-opacity="1" fill-rule="nonzero"/></g></g><g clip-path="url(#d064aa5229)"><g clip-path="url(#a33196a837)"><path fill="#8a8a8a" d="M 371.253906 365.253906 L 591.527344 365.253906 L 591.527344 392.199219 L 371.253906 392.199219 Z M 371.253906 365.253906 " fill-opacity="1" fill-rule="nonzero"/></g></g><g clip-path="url(#96926d3a83)"><g clip-path="url(#2710b702fe)"><path fill="#8a8a8a" d="M 371.253906 365.253906 L 591.527344 365.253906 L 591.527344 392.199219 L 371.253906 392.199219 Z M 371.253906 365.253906 " fill-opacity="1" fill-rule="nonzero"/></g></g><g clip-path="url(#cd1a7c4425)"><path fill="#8a8a8a" d="M 258.089844 535.640625 L 258.089844 64.394531 L 261.59375 64.394531 L 261.59375 535.640625 Z M 258.089844 535.640625 " fill-opacity="1" fill-rule="nonzero"/></g><g clip-path="url(#31e6942b26)"><g clip-path="url(#19331d08a6)"><path fill="#8a8a8a" d="M 228.734375 392.191406 L 8.460938 392.191406 L 8.460938 365.246094 L 228.734375 365.246094 Z M 228.734375 392.191406 " fill-opacity="1" fill-rule="nonzero"/></g></g><g clip-path="url(#2dfaddd2b0)"><g clip-path="url(#847d6bd784)"><path fill="#8a8a8a" d="M 228.734375 392.191406 L 8.460938 392.191406 L 8.460938 365.246094 L 228.734375 365.246094 Z M 228.734375 392.191406 " fill-opacity="1" fill-rule="nonzero"/></g></g><g clip-path="url(#54de7ebeb3)"><g clip-path="url(#08204bbef7)"><path fill="#8a8a8a" d="M 228.734375 236.207031 L 8.460938 236.207031 L 8.460938 209.265625 L 228.734375 209.265625 Z M 228.734375 236.207031 " fill-opacity="1" fill-rule="nonzero"/></g></g><g clip-path="url(#04a8d7d08e)"><g clip-path="url(#fafda5ed95)"><path fill="#8a8a8a" d="M 228.734375 236.207031 L 8.460938 236.207031 L 8.460938 209.265625 L 228.734375 209.265625 Z M 228.734375 236.207031 " fill-opacity="1" fill-rule="nonzero"/></g></g><g clip-path="url(#d4e6ffda15)"><path fill="#8a8a8a" d="M 338.558594 535.535156 L 338.558594 64.289062 L 342.0625 64.289062 L 342.0625 535.535156 Z M 338.558594 535.535156 " fill-opacity="1" fill-rule="nonzero"/></g><g clip-path="url(#e37b1ef893)"><g clip-path="url(#6d1a91e272)"><path fill="#8a8a8a" d="M 338.558594 50.980469 L 472.636719 50.980469 L 472.636719 77.925781 L 338.558594 77.925781 Z M 338.558594 50.980469 " fill-opacity="1" fill-rule="nonzero"/></g></g><g clip-path="url(#fe2fe7f568)"><g clip-path="url(#fe46f507be)"><path fill="#8a8a8a" d="M 338.558594 50.980469 L 472.636719 50.980469 L 472.636719 77.925781 L 338.558594 77.925781 Z M 338.558594 50.980469 " fill-opacity="1" fill-rule="nonzero"/></g></g><g clip-path="url(#81ddd5c96b)"><g clip-path="url(#21ada1c124)"><path fill="#8a8a8a" d="M 261.433594 78.128906 L 127.351562 78.128906 L 127.351562 51.1875 L 261.433594 51.1875 Z M 261.433594 78.128906 " fill-opacity="1" fill-rule="nonzero"/></g></g><g clip-path="url(#1a488d70fa)"><g clip-path="url(#baec23b7bb)"><path fill="#8a8a8a" d="M 261.433594 78.128906 L 127.351562 78.128906 L 127.351562 51.1875 L 261.433594 51.1875 Z M 261.433594 78.128906 " fill-opacity="1" fill-rule="nonzero"/></g></g><g clip-path="url(#178d77d151)"><g clip-path="url(#648fb79aec)"><path fill="#8a8a8a" d="M 261.433594 549.011719 L 127.351562 549.011719 L 127.351562 522.066406 L 261.433594 522.066406 Z M 261.433594 549.011719 " fill-opacity="1" fill-rule="nonzero"/></g></g><g clip-path="url(#143da418cd)"><g clip-path="url(#069b7f7b20)"><path fill="#8a8a8a" d="M 261.433594 549.011719 L 127.351562 549.011719 L 127.351562 522.066406 L 261.433594 522.066406 Z M 261.433594 549.011719 " fill-opacity="1" fill-rule="nonzero"/></g></g></svg>