<svg xmlns="http://www.w3.org/2000/svg" xmlns:xlink="http://www.w3.org/1999/xlink" width="500" zoomAndPan="magnify" viewBox="0 0 375 374.999991" height="500" preserveAspectRatio="xMidYMid meet" version="1.0"><defs><clipPath id="c6cbc4f535"><path d="M 18.75 18.75 L 356.25 18.75 L 356.25 356.25 L 18.75 356.25 Z M 18.75 18.75 " clip-rule="nonzero"/></clipPath><clipPath id="d878a7ac0b"><path d="M 187.5 18.75 C 94.300781 18.75 18.75 94.300781 18.75 187.5 C 18.75 280.699219 94.300781 356.25 187.5 356.25 C 280.699219 356.25 356.25 280.699219 356.25 187.5 C 356.25 94.300781 280.699219 18.75 187.5 18.75 Z M 187.5 18.75 " clip-rule="nonzero"/></clipPath><clipPath id="89500bbc2f"><path d="M 55.417969 138 L 175 138 L 175 214 L 55.417969 214 Z M 55.417969 138 " clip-rule="nonzero"/></clipPath><clipPath id="5b97080965"><path d="M 210 133 L 319.621094 133 L 319.621094 207 L 210 207 Z M 210 133 " clip-rule="nonzero"/></clipPath><clipPath id="43a0f6804b"><path d="M 136 257 L 260 257 L 260 316.558594 L 136 316.558594 Z M 136 257 " clip-rule="nonzero"/></clipPath></defs><g clip-path="url(#c6cbc4f535)"><g clip-path="url(#d878a7ac0b)"><path fill="#ee4533" d="M 18.75 18.75 L 356.25 18.75 L 356.25 356.25 L 18.75 356.25 Z M 18.75 18.75 " fill-opacity="1" fill-rule="nonzero"/></g></g><path fill="#ffffff" d="M 167.105469 142.011719 C 173.625 200.136719 128.722656 216.707031 99.964844 209.644531 C 71.25 202.585938 59.777344 174.476562 59.777344 174.476562 C 65.40625 167.921875 82.265625 151.269531 112.578125 144.84375 C 116.359375 144.042969 119.980469 143.363281 123.425781 142.855469 C 123.425781 143.492188 123.71875 151.398438 138.519531 155.75 C 153.949219 160.316406 163.703125 149.492188 160.210938 141.164062 C 162.988281 141.421875 165.300781 141.714844 167.105469 142.011719 " fill-opacity="1" fill-rule="nonzero"/><path fill="#000000" d="M 160.210938 141.164062 C 163.703125 149.492188 153.949219 160.316406 138.519531 155.75 C 123.71875 151.398438 123.425781 143.492188 123.425781 142.855469 C 123.425781 142.816406 123.425781 142.816406 123.425781 142.816406 C 139.527344 140.320312 151.972656 140.449219 160.210938 141.164062 " fill-opacity="1" fill-rule="nonzero"/><g clip-path="url(#89500bbc2f)"><path fill="#000000" d="M 172.6875 141.226562 C 172.613281 141.203125 170.816406 140.679688 167.414062 140.113281 C 165.570312 139.8125 163.214844 139.515625 160.375 139.253906 C 152.644531 138.574219 139.898438 138.320312 123.132812 140.917969 C 123.0625 140.929688 123 140.976562 122.929688 140.992188 C 119.679688 141.480469 116.167969 142.121094 112.183594 142.96875 C 81.457031 149.476562 64.285156 166.296875 58.328125 173.230469 C 56.777344 175.050781 56.03125 176.117188 56.03125 176.117188 C 55.425781 176.984375 55.628906 178.179688 56.488281 178.789062 C 56.824219 179.027344 57.207031 179.140625 57.589844 179.140625 C 58.1875 179.140625 58.773438 178.859375 59.148438 178.335938 C 59.152344 178.324219 59.230469 178.21875 59.351562 178.058594 C 63.144531 185.550781 75.316406 205.5625 99.515625 211.511719 C 103.910156 212.589844 108.445312 213.113281 112.992188 213.113281 C 126.960938 213.113281 140.984375 208.164062 151.109375 199.195312 C 160.925781 190.511719 171.835938 173.96875 169.226562 144.355469 C 170.757812 144.667969 171.609375 144.90625 171.621094 144.910156 C 171.796875 144.960938 171.976562 144.988281 172.152344 144.988281 C 172.976562 144.988281 173.742188 144.441406 173.984375 143.605469 C 174.28125 142.585938 173.699219 141.523438 172.6875 141.226562 Z M 158.71875 142.984375 C 159.339844 145.492188 158.652344 148.222656 156.636719 150.492188 C 153.703125 153.792969 147.542969 156.425781 139.054688 153.90625 C 129.300781 151.039062 126.492188 146.738281 125.675781 144.441406 C 140.207031 142.34375 151.4375 142.433594 158.71875 142.984375 Z M 148.585938 196.316406 C 136.070312 207.390625 117.167969 211.890625 100.417969 207.78125 C 76.085938 201.796875 64.417969 179.851562 62.027344 174.816406 C 68.367188 167.730469 84.632812 152.726562 112.972656 146.722656 C 116.25 146.023438 119.148438 145.5 121.882812 145.054688 C 122.816406 148.269531 126.136719 154.105469 137.980469 157.589844 C 140.703125 158.394531 143.238281 158.75 145.566406 158.746094 C 151.953125 158.746094 156.761719 156.109375 159.480469 153.050781 C 161.992188 150.226562 163.121094 146.710938 162.726562 143.363281 C 163.679688 143.472656 164.539062 143.582031 165.339844 143.699219 C 168.140625 172.351562 157.847656 188.125 148.585938 196.316406 " fill-opacity="1" fill-rule="nonzero"/></g><path fill="#000000" d="M 289.785156 148.988281 C 290.082031 155.625 282.175781 163.484375 269.5625 156.847656 C 254.976562 149.15625 258.003906 137.402344 258.003906 137.402344 C 261.703125 138.207031 265.574219 139.308594 269.5625 140.703125 C 277.34375 143.40625 284.027344 146.238281 289.785156 148.988281 " fill-opacity="1" fill-rule="nonzero"/><path fill="#ffffff" d="M 307.574219 158.960938 C 307.574219 158.960938 307.90625 181.453125 289.15625 194.515625 C 266.242188 210.453125 238.03125 206.476562 223.652344 183.566406 C 209.277344 160.695312 221.59375 136.472656 221.59375 136.472656 C 229.625 134.867188 242.28125 133.8125 258.003906 137.402344 C 258.003906 137.402344 254.976562 149.15625 269.5625 156.847656 C 282.175781 163.484375 290.082031 155.625 289.785156 148.988281 C 297.355469 152.621094 303.199219 156.085938 307.574219 158.960938 " fill-opacity="1" fill-rule="nonzero"/><g clip-path="url(#5b97080965)"><path fill="#000000" d="M 318.882812 165.300781 C 318.753906 165.167969 315.636719 162.066406 308.898438 157.550781 C 308.828125 157.476562 308.730469 157.441406 308.644531 157.375 C 308.632812 157.367188 308.625 157.363281 308.617188 157.355469 C 308.609375 157.351562 308.601562 157.347656 308.59375 157.34375 C 308.484375 157.269531 308.386719 157.179688 308.261719 157.132812 C 302.914062 153.640625 296.980469 150.316406 290.605469 147.253906 C 290.585938 147.242188 290.558594 147.234375 290.539062 147.222656 C 290.488281 147.203125 290.445312 147.175781 290.394531 147.160156 C 283.886719 144.0625 277.273438 141.351562 270.1875 138.890625 C 266.160156 137.476562 262.191406 136.347656 258.429688 135.53125 C 242.261719 131.839844 229.269531 132.984375 221.234375 134.589844 C 214.996094 135.800781 211.464844 137.359375 211.316406 137.425781 C 210.355469 137.855469 209.921875 138.988281 210.347656 139.953125 C 210.773438 140.921875 211.898438 141.363281 212.863281 140.933594 C 212.890625 140.925781 214.855469 140.066406 218.378906 139.164062 C 215.464844 146.890625 210.355469 166.003906 222.039062 184.589844 C 228.832031 195.414062 239.109375 202.71875 250.96875 205.152344 C 253.976562 205.769531 257.027344 206.074219 260.09375 206.074219 C 270.367188 206.074219 280.808594 202.65625 290.246094 196.09375 C 305.324219 185.585938 308.578125 169.535156 309.285156 162.476562 C 313.933594 165.792969 316.160156 167.992188 316.1875 168.015625 C 316.5625 168.386719 317.046875 168.574219 317.535156 168.574219 C 318.023438 168.574219 318.511719 168.386719 318.886719 168.011719 C 319.632812 167.261719 319.632812 166.046875 318.882812 165.300781 Z M 287.761719 150.1875 C 287.476562 152.425781 286.140625 154.601562 284.042969 155.945312 C 280.535156 158.195312 275.703125 157.914062 270.449219 155.148438 C 260.722656 150.015625 259.566406 143.109375 259.644531 139.792969 C 262.660156 140.527344 265.765625 141.40625 268.9375 142.515625 C 275.535156 144.808594 281.699219 147.34375 287.761719 150.1875 Z M 288.070312 192.9375 C 276.679688 200.859375 263.777344 203.867188 251.734375 201.390625 C 240.746094 199.132812 231.589844 192.617188 225.269531 182.539062 C 213.078125 163.144531 221.039062 142.449219 222.910156 138.191406 C 230.347656 136.808594 241.757812 135.984375 255.898438 138.945312 C 255.667969 142.96875 256.609375 152.183594 268.679688 158.546875 C 272.554688 160.585938 275.867188 161.292969 278.59375 161.292969 C 282.050781 161.292969 284.566406 160.160156 286.09375 159.183594 C 288.757812 157.480469 290.648438 154.808594 291.371094 151.921875 C 296.472656 154.472656 301.261719 157.179688 305.632812 160.003906 C 305.417969 164.414062 303.566406 182.140625 288.070312 192.9375 " fill-opacity="1" fill-rule="nonzero"/></g><path fill="#000000" d="M 169.476562 85.054688 C 167.429688 80.089844 161.132812 73.253906 153.511719 73.515625 C 142.601562 73.921875 110.027344 84.472656 94.191406 108.179688 C 93.648438 108.992188 93.800781 110.085938 94.546875 110.71875 C 94.902344 111.019531 95.339844 111.167969 95.773438 111.167969 C 96.25 111.167969 96.726562 110.988281 97.09375 110.640625 C 97.238281 110.5 111.894531 96.613281 128.585938 94.597656 C 136.777344 93.609375 145.414062 93.71875 152.347656 93.808594 C 162.175781 93.933594 166.988281 93.90625 169.039062 91.984375 C 170.574219 90.550781 170.730469 88.089844 169.476562 85.054688 " fill-opacity="1" fill-rule="nonzero"/><path fill="#000000" d="M 294.695312 101.328125 C 292.894531 96.292969 281.261719 82.324219 258.414062 73.628906 C 241.207031 67.082031 225.222656 66.855469 216.703125 73.035156 C 212.195312 76.308594 209.941406 81.183594 210.1875 87.136719 C 210.210938 87.714844 210.492188 88.246094 210.949219 88.589844 C 211.40625 88.9375 212 89.050781 212.550781 88.917969 C 212.789062 88.863281 236.308594 83.164062 257.121094 90.28125 C 268.484375 94.171875 277.332031 98.902344 283.191406 102.03125 C 287.644531 104.414062 290.519531 105.953125 292.410156 105.953125 C 293.410156 105.953125 294.136719 105.523438 294.679688 104.566406 C 295.164062 103.714844 295.167969 102.65625 294.695312 101.328125 " fill-opacity="1" fill-rule="nonzero"/><path fill="#ed1c24" d="M 189.011719 282.445312 C 189.011719 282.445312 226.597656 269.164062 255.480469 294.234375 C 262.039062 310.679688 256.65625 313.722656 234.167969 314.527344 C 204.988281 315.582031 163.996094 308.988281 147.8125 306.367188 C 131.582031 303.707031 139.820312 286.246094 147.8125 276.226562 C 148.148438 275.804688 148.484375 275.421875 148.902344 275 C 166.222656 274.578125 179.34375 277.960938 189.011719 282.445312 " fill-opacity="1" fill-rule="nonzero"/><path fill="#000000" d="M 246.609375 275.679688 C 250.519531 283.246094 253.546875 289.332031 255.480469 294.234375 C 226.597656 269.164062 189.011719 282.445312 189.011719 282.445312 C 179.34375 277.960938 166.222656 274.578125 148.902344 275 C 157.941406 265.070312 183.925781 252.132812 220.25 263.546875 C 231.347656 267.054688 239.96875 271.324219 246.609375 275.679688 " fill-opacity="1" fill-rule="nonzero"/><g clip-path="url(#43a0f6804b)"><path fill="#000000" d="M 257.253906 293.527344 C 255.300781 288.578125 252.265625 282.457031 248.304688 274.792969 C 248.152344 274.5 247.925781 274.253906 247.652344 274.070312 C 240.078125 269.105469 231.050781 264.949219 220.816406 261.714844 C 182.429688 249.648438 156.070312 264.285156 147.554688 273.644531 C 147.078125 274.121094 146.703125 274.550781 146.320312 275.027344 C 140.117188 282.808594 134.496094 293.765625 137.328125 301.171875 C 138.792969 305.007812 142.21875 307.398438 147.503906 308.261719 C 162 310.609375 198.757812 316.558594 227.601562 316.558594 C 229.867188 316.558594 232.082031 316.523438 234.234375 316.441406 C 247.558594 315.96875 255.378906 314.78125 258.558594 309.871094 C 260.820312 306.375 260.429688 301.488281 257.253906 293.527344 Z M 219.675781 265.375 C 229.386719 268.445312 237.953125 272.359375 245.148438 277.011719 C 247.3125 281.214844 249.15625 284.886719 250.71875 288.179688 C 224.613281 270.53125 194.085938 278.855469 189.105469 280.398438 C 178.828125 275.769531 167.011719 273.328125 153.84375 273.085938 C 161.070312 267.277344 174.261719 260.972656 192.429688 260.972656 C 200.5625 260.972656 209.683594 262.234375 219.675781 265.375 Z M 255.359375 307.777344 C 253.121094 311.234375 245.242188 312.210938 234.097656 312.609375 C 204.910156 313.671875 163.644531 306.988281 148.117188 304.472656 C 144.210938 303.832031 141.84375 302.304688 140.890625 299.796875 C 138.78125 294.277344 143.59375 284.582031 149.296875 277.429688 C 149.429688 277.261719 149.609375 277.085938 149.753906 276.921875 C 164.285156 276.660156 177.210938 279.09375 188.1875 284.171875 C 188.1875 284.171875 188.1875 284.175781 188.191406 284.175781 C 188.199219 284.179688 188.207031 284.183594 188.214844 284.1875 C 204.09375 291.503906 210.390625 301.914062 210.453125 302.019531 C 210.808594 302.625 211.441406 302.960938 212.097656 302.960938 C 212.425781 302.960938 212.761719 302.871094 213.0625 302.691406 C 213.972656 302.148438 214.273438 300.980469 213.738281 300.066406 C 213.492188 299.644531 208.003906 290.535156 194.300781 282.984375 C 204.945312 280.496094 232.03125 276.734375 253.882812 295.417969 C 256.339844 301.707031 256.804688 305.542969 255.359375 307.777344 " fill-opacity="1" fill-rule="nonzero"/></g></svg>