<svg xmlns="http://www.w3.org/2000/svg" xmlns:xlink="http://www.w3.org/1999/xlink" width="500" zoomAndPan="magnify" viewBox="0 0 375 374.999991" height="500" preserveAspectRatio="xMidYMid meet" version="1.0"><defs><clipPath id="df728bf8b5"><path d="M 16.5 16.5 L 358.5 16.5 L 358.5 358.5 L 16.5 358.5 Z M 16.5 16.5 " clip-rule="nonzero"/></clipPath><clipPath id="c10cf9b718"><path d="M 187.5 16.5 C 93.058594 16.5 16.5 93.058594 16.5 187.5 C 16.5 281.941406 93.058594 358.5 187.5 358.5 C 281.941406 358.5 358.5 281.941406 358.5 187.5 C 358.5 93.058594 281.941406 16.5 187.5 16.5 Z M 187.5 16.5 " clip-rule="nonzero"/></clipPath><clipPath id="0e1a194846"><path d="M 64.804688 170.367188 L 299.519531 170.367188 L 299.519531 321.203125 L 64.804688 321.203125 Z M 64.804688 170.367188 " clip-rule="nonzero"/></clipPath></defs><g clip-path="url(#df728bf8b5)"><g clip-path="url(#c10cf9b718)"><path fill="#39b549" d="M 16.5 16.5 L 358.5 16.5 L 358.5 358.5 L 16.5 358.5 Z M 16.5 16.5 " fill-opacity="1" fill-rule="nonzero"/></g></g><path fill="#000000" d="M 149.34375 50.492188 C 151.917969 50.113281 154.523438 50.113281 157.117188 50.15625 C 160.820312 50.269531 164.488281 50.886719 168.09375 51.714844 C 167.613281 59.238281 167.125 66.757812 166.59375 74.277344 C 158.03125 72.082031 148.964844 72.277344 140.402344 74.335938 C 135.894531 75.40625 131.523438 77.015625 127.3125 78.949219 C 123.007812 80.929688 118.882812 83.292969 114.957031 85.957031 C 117.300781 78.628906 120.425781 71.460938 125.039062 65.289062 C 127.375 62.15625 130.125 59.332031 133.25 57 C 137.9375 53.460938 143.5625 51.28125 149.34375 50.492188 " fill-opacity="1" fill-rule="nonzero"/><path fill="#000000" d="M 215.046875 56.734375 C 217.710938 56.101562 220.445312 55.765625 223.179688 55.738281 C 225.234375 55.726562 227.300781 55.832031 229.316406 56.25 C 233.136719 57.027344 236.746094 58.707031 239.898438 61.007812 C 242.894531 63.191406 245.433594 65.964844 247.605469 68.972656 C 251.855469 74.84375 254.652344 81.632812 256.90625 88.5 C 250.195312 84.078125 242.988281 80.304688 235.246094 78.125 C 228.105469 76.070312 220.453125 75.589844 213.179688 77.21875 C 213.808594 70.390625 214.425781 63.5625 215.046875 56.734375 " fill-opacity="1" fill-rule="nonzero"/><path fill="#000000" d="M 223.515625 105.441406 C 219.179688 105.992188 215.011719 107.574219 211.277344 109.84375 C 208.109375 111.753906 205.253906 114.160156 202.675781 116.816406 C 197.273438 122.292969 193.214844 129.074219 190.75 136.382812 C 190.6875 136.523438 190.667969 136.667969 190.699219 136.816406 C 193.644531 149.925781 193.824219 163.785156 190.328125 176.804688 C 193.101562 184.257812 197.328125 191.328125 203.402344 196.5 C 210.074219 202.207031 219.210938 204.789062 227.855469 203.5625 C 232.03125 202.976562 236.074219 201.5 239.683594 199.300781 C 242.816406 197.394531 245.75 195.125 248.242188 192.410156 C 252.472656 188.195312 255.882812 183.164062 258.398438 177.730469 C 260.222656 173.808594 261.523438 169.648438 262.433594 165.417969 C 264.402344 156.335938 264.5625 146.796875 262.457031 137.726562 C 261.410156 133.328125 259.785156 129.074219 257.65625 125.09375 C 256.007812 122.046875 254.097656 119.125 251.832031 116.507812 C 250.472656 114.921875 248.921875 113.519531 247.355469 112.15625 C 240.785156 106.703125 231.910156 104.359375 223.515625 105.441406 Z M 141.914062 96.980469 C 135.480469 97.5 129.335938 100.289062 124.410156 104.457031 C 121.40625 106.992188 118.828125 110.003906 116.582031 113.230469 C 114.230469 116.632812 112.1875 120.265625 110.609375 124.101562 C 107.105469 132.570312 105.664062 141.820312 105.828125 150.96875 C 105.898438 155.214844 106.210938 159.453125 106.890625 163.644531 C 107.714844 168.660156 109.042969 173.601562 110.945312 178.308594 C 112.578125 182.359375 114.667969 186.210938 117.070312 189.84375 C 121.03125 195.789062 125.996094 201.171875 132.085938 204.917969 C 139.683594 209.589844 149.207031 211.109375 157.800781 208.667969 C 161.339844 207.671875 164.683594 206.023438 167.660156 203.851562 C 170.816406 201.570312 173.597656 198.78125 175.953125 195.667969 C 176.90625 194.363281 177.917969 193.097656 178.78125 191.730469 C 180.976562 188.328125 182.722656 184.644531 184.203125 180.875 C 187.824219 171.414062 188.878906 161.109375 188.230469 151.03125 C 187.878906 145.597656 187.007812 140.191406 185.519531 134.953125 C 183.246094 127.015625 179.507812 119.484375 174.410156 113.011719 C 172.726562 110.859375 170.925781 108.792969 168.921875 106.933594 C 167.976562 106.039062 166.953125 105.234375 165.953125 104.402344 C 161.070312 100.453125 155.121094 97.792969 148.890625 97.070312 C 146.574219 96.8125 144.234375 96.792969 141.914062 96.980469 Z M 139.828125 92.566406 C 141.898438 92.269531 143.992188 92.292969 146.074219 92.292969 C 150.96875 92.355469 155.847656 93.46875 160.304688 95.511719 C 165.640625 97.953125 170.335938 101.65625 174.332031 105.949219 C 177.027344 108.839844 179.4375 111.996094 181.59375 115.316406 C 184.542969 119.902344 186.910156 124.863281 188.730469 130.011719 C 190.570312 126.398438 192.460938 122.78125 194.941406 119.566406 C 199.351562 113.828125 204.722656 108.722656 211.109375 105.300781 C 214.894531 103.292969 219.03125 101.917969 223.289062 101.417969 C 228.320312 100.898438 233.464844 101.300781 238.324219 102.753906 C 241.460938 103.691406 244.46875 105.082031 247.199219 106.90625 C 250.402344 109.027344 253.238281 111.6875 255.695312 114.65625 C 258.328125 117.835938 260.515625 121.371094 262.355469 125.070312 C 266.054688 132.519531 267.933594 140.824219 268.167969 149.136719 C 268.316406 153.839844 267.863281 158.539062 267.105469 163.175781 C 265.640625 171.847656 262.535156 180.3125 257.539062 187.558594 C 253.335938 193.605469 248.066406 198.996094 241.734375 202.753906 C 238.277344 204.804688 234.511719 206.367188 230.574219 207.15625 C 221.898438 208.917969 212.59375 207.304688 204.992188 202.726562 C 201.875 200.84375 199.105469 198.417969 196.667969 195.707031 C 193.261719 191.902344 190.535156 187.523438 188.292969 182.933594 C 185.398438 190.1875 181.347656 197.042969 175.929688 202.664062 C 173.167969 205.53125 170.035156 208.050781 166.570312 209.992188 C 163.414062 211.769531 159.980469 213.023438 156.433594 213.691406 C 147.609375 215.410156 138.152344 213.894531 130.398438 209.269531 C 124.085938 205.523438 118.84375 200.160156 114.574219 194.195312 C 109.808594 187.574219 106.265625 180.070312 104.128906 172.179688 C 102.15625 165.0625 101.386719 157.660156 101.3125 150.285156 C 101.242188 141.042969 102.671875 131.71875 106.097656 123.121094 C 109.011719 115.828125 113.339844 109.117188 118.757812 103.472656 C 124.359375 97.667969 131.84375 93.636719 139.828125 92.566406 " fill-opacity="1" fill-rule="nonzero"/><path fill="#000000" d="M 150.878906 164.4375 C 150.15625 164.710938 149.730469 165.457031 149.550781 166.183594 C 149.253906 167.269531 149.335938 168.46875 149.847656 169.476562 C 150.128906 169.992188 150.582031 170.503906 151.195312 170.5625 C 151.777344 170.640625 152.316406 170.261719 152.636719 169.800781 C 153.253906 168.875 153.421875 167.691406 153.226562 166.609375 C 153.109375 165.933594 152.863281 165.246094 152.347656 164.777344 C 151.964844 164.410156 151.382812 164.269531 150.878906 164.4375 Z M 151.359375 150.589844 C 150.832031 150.691406 150.347656 150.96875 149.980469 151.359375 C 149.195312 152.15625 148.765625 153.242188 148.539062 154.328125 C 148.15625 156.160156 148.378906 158.152344 149.308594 159.785156 C 149.695312 160.414062 150.207031 160.996094 150.878906 161.3125 C 151.683594 161.667969 152.675781 161.527344 153.351562 160.964844 C 154.042969 160.402344 154.523438 159.617188 154.828125 158.785156 C 155.414062 157.136719 155.472656 155.292969 154.953125 153.621094 C 154.636719 152.636719 154.15625 151.636719 153.296875 151.023438 C 152.746094 150.617188 152.03125 150.441406 151.359375 150.589844 Z M 153.980469 143.917969 C 155.863281 143.570312 157.890625 143.828125 159.554688 144.816406 C 161.234375 145.839844 162.574219 147.355469 163.613281 149.019531 C 165.578125 152.101562 166.605469 155.722656 166.878906 159.363281 C 167.1875 163.695312 166.699219 168.175781 164.863281 172.144531 C 164.074219 173.855469 163.050781 175.464844 161.773438 176.847656 C 160.238281 178.480469 158.128906 179.660156 155.867188 179.707031 C 154.101562 179.789062 152.34375 179.214844 150.914062 178.1875 C 149.121094 176.917969 147.824219 175.070312 146.78125 173.15625 C 144.644531 169.171875 144.023438 164.53125 144.25 160.050781 C 144.429688 155.949219 145.566406 151.832031 147.90625 148.445312 C 149.351562 146.320312 151.402344 144.417969 153.980469 143.917969 " fill-opacity="1" fill-rule="nonzero"/><path fill="#000000" d="M 199.066406 162.996094 C 198.628906 163.164062 198.292969 163.546875 198.152344 164 C 197.632812 165.289062 197.746094 166.933594 198.757812 167.949219 C 199.261719 168.46875 200.179688 168.292969 200.582031 167.730469 C 201.519531 166.453125 201.523438 164.515625 200.492188 163.289062 C 200.15625 162.871094 199.539062 162.789062 199.066406 162.996094 Z M 199.542969 150.9375 C 198.671875 151.152344 198.058594 151.902344 197.671875 152.679688 C 196.859375 154.355469 196.78125 156.382812 197.445312 158.125 C 197.765625 158.964844 198.289062 159.78125 199.09375 160.222656 C 199.773438 160.601562 200.664062 160.511719 201.28125 160.042969 C 201.835938 159.628906 202.226562 159.035156 202.511719 158.410156 C 203.234375 156.757812 203.273438 154.816406 202.609375 153.140625 C 202.304688 152.367188 201.839844 151.605469 201.113281 151.175781 C 200.644531 150.890625 200.074219 150.8125 199.542969 150.9375 Z M 201.9375 145.09375 C 203.941406 144.746094 206.09375 145.300781 207.652344 146.632812 C 209.214844 147.917969 210.335938 149.664062 211.183594 151.492188 C 212.84375 155.042969 213.265625 159.078125 212.9375 162.960938 C 212.601562 166.820312 211.257812 170.675781 208.683594 173.597656 C 207.335938 175.128906 205.421875 176.238281 203.359375 176.265625 C 201.285156 176.363281 199.285156 175.375 197.875 173.875 C 195.269531 171.117188 193.839844 167.390625 193.441406 163.632812 C 193 159.515625 193.359375 155.203125 195.128906 151.421875 C 195.882812 149.789062 196.886719 148.253906 198.199219 147.023438 C 199.238281 146.050781 200.535156 145.332031 201.9375 145.09375 " fill-opacity="1" fill-rule="nonzero"/><g clip-path="url(#0e1a194846)"><path fill="#000000" d="M 168.0625 281.585938 C 167.597656 290.601562 167.101562 299.609375 166.660156 308.625 C 176.316406 311.289062 186.351562 312.421875 196.351562 312.375 C 196.152344 302.160156 195.878906 291.945312 195.582031 281.734375 C 188.230469 281.859375 180.871094 282.015625 173.515625 281.726562 C 171.699219 281.6875 169.882812 281.53125 168.0625 281.585938 Z M 203.691406 281.269531 C 202.039062 281.367188 200.378906 281.4375 198.730469 281.617188 C 199.019531 291.859375 199.269531 302.105469 199.539062 312.351562 C 203.710938 312.296875 207.867188 311.921875 212.019531 311.511719 C 217.175781 310.976562 222.308594 310.234375 227.414062 309.3125 C 226.371094 299.324219 225.296875 289.34375 224.234375 279.363281 C 217.402344 280.15625 210.558594 280.878906 203.691406 281.269531 Z M 140.492188 279.003906 C 140.035156 284.367188 139.695312 289.742188 139.191406 295.101562 C 143.378906 298.308594 147.871094 301.117188 152.605469 303.414062 C 156.160156 305.101562 159.84375 306.492188 163.578125 307.707031 C 163.972656 298.9375 164.5 290.175781 164.925781 281.410156 C 159.121094 280.988281 153.320312 280.507812 147.542969 279.832031 C 145.1875 279.578125 142.851562 279.191406 140.492188 279.003906 Z M 121.328125 275.871094 C 125.558594 282.117188 130.554688 287.851562 136.28125 292.738281 C 136.574219 288 137.054688 283.273438 137.324219 278.53125 C 131.972656 277.761719 126.671875 276.699219 121.328125 275.871094 Z M 227.378906 278.945312 C 228.40625 288.867188 229.476562 298.785156 230.523438 308.707031 C 238.800781 307.039062 246.988281 304.910156 255.082031 302.484375 C 253.535156 293.300781 252.007812 284.113281 250.445312 274.933594 C 242.800781 276.503906 235.09375 277.757812 227.378906 278.945312 Z M 160.285156 253.054688 C 160.820312 261.359375 161.210938 269.671875 161.75 277.976562 C 166.539062 278.3125 171.335938 278.53125 176.136719 278.640625 C 180.546875 278.734375 184.957031 278.789062 189.367188 278.691406 C 189.449219 276.511719 189.472656 274.332031 189.488281 272.152344 C 189.480469 269.617188 189.554688 267.085938 189.511719 264.554688 C 189.601562 261.417969 189.566406 258.285156 189.628906 255.148438 C 179.816406 255.050781 170.007812 254.40625 160.285156 253.054688 Z M 192.835938 255.152344 C 192.773438 258.285156 192.792969 261.417969 192.746094 264.554688 C 192.667969 269.238281 192.59375 273.921875 192.613281 278.605469 C 201.023438 278.296875 209.4375 277.804688 217.808594 276.902344 C 218.210938 273.183594 218.527344 269.457031 218.863281 265.734375 C 219.242188 261.257812 219.703125 256.789062 220.054688 252.3125 C 211.09375 254.101562 201.96875 255.070312 192.835938 255.152344 Z M 127.839844 244.65625 C 128.777344 249.457031 129.898438 254.21875 130.863281 259.015625 C 132.011719 264.296875 133.097656 269.59375 134.292969 274.867188 C 142.351562 276.078125 150.445312 277.050781 158.5625 277.726562 C 158.171875 270.421875 157.679688 263.125 157.246094 255.820312 C 157.164062 254.742188 157.1875 253.648438 157.058594 252.574219 C 147.078125 250.996094 137.21875 248.46875 127.839844 244.65625 Z M 230 249.816406 C 227.796875 250.488281 225.558594 251.039062 223.320312 251.578125 C 223.027344 255.371094 222.664062 259.15625 222.289062 262.9375 C 221.886719 267.453125 221.4375 271.964844 221.066406 276.484375 C 228.460938 275.628906 235.8125 274.445312 243.132812 273.097656 C 244.082031 266.808594 245.03125 260.515625 245.921875 254.21875 C 246.480469 250.429688 247.136719 246.65625 247.535156 242.84375 C 241.921875 245.714844 235.996094 247.90625 230 249.816406 Z M 102.992188 229.660156 C 103.289062 230.886719 103.519531 232.128906 103.828125 233.355469 C 104.234375 235.167969 104.675781 236.976562 105.195312 238.761719 C 105.257812 239.03125 105.324219 239.304688 105.421875 239.566406 C 105.484375 239.839844 105.558594 240.109375 105.652344 240.375 C 106.492188 243.511719 107.433594 246.625 108.527344 249.683594 C 111.226562 257.480469 114.578125 265.074219 118.898438 272.097656 C 122.910156 272.761719 126.878906 273.65625 130.898438 274.28125 C 129.308594 266.679688 127.640625 259.089844 125.988281 251.5 C 125.375 248.714844 124.761719 245.929688 124.265625 243.117188 C 118.328125 240.410156 112.613281 237.167969 107.398438 233.210938 C 105.890625 232.078125 104.460938 230.847656 102.992188 229.660156 Z M 294.433594 184.65625 C 296.339844 179.996094 297.972656 175.230469 299.484375 170.425781 C 299.625 172.269531 299.328125 174.101562 299.179688 175.933594 C 298.078125 186.867188 294.46875 197.523438 288.765625 206.878906 C 287.125 209.742188 285.085938 212.34375 282.945312 214.839844 C 281.320312 216.71875 279.691406 218.589844 277.964844 220.375 C 270.089844 228.585938 261.03125 235.6875 251.015625 241.035156 C 250.84375 243.132812 250.480469 245.207031 250.160156 247.285156 C 248.945312 255.679688 247.660156 264.058594 246.433594 272.453125 C 248.644531 272.074219 250.804688 271.449219 253.023438 271.117188 C 253.496094 273.867188 253.941406 276.621094 254.394531 279.378906 C 254.960938 282.445312 255.394531 285.535156 255.964844 288.597656 C 256.65625 292.925781 257.457031 297.234375 258.121094 301.566406 C 262.074219 300.421875 265.9375 298.761719 270.082031 298.453125 C 271.34375 298.375 272.644531 298.339844 273.867188 298.730469 C 274.699219 299.007812 275.519531 299.492188 275.992188 300.265625 C 276.582031 301.207031 276.714844 302.367188 276.605469 303.460938 C 276.371094 306.417969 275.15625 309.167969 273.929688 311.824219 C 277.441406 312.839844 280.859375 314.40625 283.648438 316.828125 C 285.082031 318.070312 286.320312 319.546875 287.257812 321.203125 C 281.28125 317.558594 274.617188 315.183594 267.824219 313.652344 C 268.996094 311.796875 270.28125 309.914062 270.664062 307.703125 C 270.804688 306.902344 270.453125 305.925781 269.644531 305.652344 C 268.25 305.191406 266.757812 305.484375 265.371094 305.820312 C 256.285156 308.238281 247.265625 310.910156 238.136719 313.152344 C 235.835938 313.710938 233.566406 314.398438 231.246094 314.855469 C 222.066406 316.496094 212.800781 317.714844 203.480469 318.117188 C 196.988281 318.398438 190.472656 318.261719 184 317.632812 C 176.078125 316.863281 168.214844 315.324219 160.65625 312.792969 C 153.523438 310.398438 146.660156 307.144531 140.355469 303.007812 C 134.867188 299.421875 129.835938 295.132812 125.367188 290.3125 C 119.820312 284.339844 115.136719 277.570312 111.269531 270.382812 C 107.496094 263.347656 104.464844 255.921875 102.027344 248.3125 C 99.488281 240.378906 97.605469 232.246094 96.175781 224.039062 C 96.078125 223.605469 96.089844 223.097656 95.761719 222.761719 C 89.789062 216.136719 84.75 208.644531 80.945312 200.546875 C 74.546875 205.742188 69.378906 212.289062 64.804688 219.128906 C 66.34375 211.679688 69.617188 204.523438 74.625 198.804688 C 76.882812 196.25 79.421875 193.929688 82.210938 191.980469 C 83.835938 190.855469 85.566406 189.878906 87.402344 189.15625 C 89.714844 188.242188 92.207031 187.785156 94.691406 187.824219 C 94.589844 190.09375 94.527344 192.363281 94.40625 194.636719 C 91.359375 194.769531 88.390625 195.765625 85.746094 197.273438 C 88.996094 204.359375 93.1875 211.007812 98.25 216.914062 C 103 222.464844 108.550781 227.308594 114.640625 231.300781 C 120.785156 235.34375 127.457031 238.539062 134.378906 240.957031 C 143.203125 244.070312 152.371094 246.113281 161.621094 247.390625 C 169.550781 248.492188 177.542969 249.023438 185.539062 249.269531 C 195.191406 249.628906 204.886719 249.117188 214.417969 247.503906 C 218.703125 246.789062 222.957031 245.875 227.125 244.625 C 230.679688 243.550781 234.203125 242.367188 237.65625 240.988281 C 244.382812 238.292969 250.777344 234.8125 256.964844 231.035156 C 262.644531 227.515625 267.886719 223.277344 272.609375 218.53125 C 277.144531 213.960938 281.238281 208.933594 284.71875 203.5 C 288.535156 197.550781 291.773438 191.21875 294.433594 184.65625 " fill-opacity="1" fill-rule="nonzero"/></g><path fill="#ffffff" d="M 153.980469 143.917969 C 151.402344 144.414062 149.351562 146.320312 147.90625 148.445312 C 145.566406 151.835938 144.429688 155.949219 144.25 160.050781 C 144.023438 164.53125 144.644531 169.171875 146.78125 173.15625 C 147.824219 175.070312 149.121094 176.917969 150.914062 178.1875 C 152.34375 179.214844 154.101562 179.789062 155.867188 179.707031 C 158.128906 179.664062 160.238281 178.480469 161.773438 176.847656 C 163.050781 175.464844 164.074219 173.855469 164.863281 172.148438 C 166.699219 168.175781 167.1875 163.695312 166.878906 159.363281 C 166.605469 155.722656 165.578125 152.101562 163.613281 149.019531 C 162.574219 147.355469 161.234375 145.839844 159.554688 144.816406 C 157.890625 143.828125 155.863281 143.570312 153.980469 143.917969 Z M 141.914062 96.980469 C 144.234375 96.792969 146.574219 96.8125 148.890625 97.070312 C 155.121094 97.792969 161.070312 100.453125 165.953125 104.402344 C 166.953125 105.234375 167.976562 106.039062 168.921875 106.933594 C 170.925781 108.792969 172.726562 110.859375 174.410156 113.011719 C 179.507812 119.484375 183.246094 127.015625 185.519531 134.953125 C 187.007812 140.191406 187.878906 145.597656 188.230469 151.03125 C 188.878906 161.109375 187.824219 171.414062 184.203125 180.875 C 182.722656 184.644531 180.976562 188.328125 178.78125 191.730469 C 177.917969 193.097656 176.90625 194.363281 175.953125 195.667969 C 173.597656 198.78125 170.816406 201.570312 167.65625 203.851562 C 164.683594 206.023438 161.335938 207.675781 157.800781 208.667969 C 149.207031 211.109375 139.683594 209.589844 132.085938 204.917969 C 125.996094 201.171875 121.03125 195.789062 117.070312 189.84375 C 114.667969 186.210938 112.578125 182.359375 110.945312 178.308594 C 109.042969 173.597656 107.714844 168.660156 106.890625 163.644531 C 106.210938 159.457031 105.898438 155.210938 105.828125 150.96875 C 105.664062 141.820312 107.105469 132.570312 110.609375 124.101562 C 112.1875 120.265625 114.230469 116.632812 116.582031 113.230469 C 118.828125 110.003906 121.40625 106.992188 124.410156 104.460938 C 129.335938 100.289062 135.480469 97.5 141.914062 96.980469 " fill-opacity="1" fill-rule="nonzero"/><path fill="#ffffff" d="M 201.9375 145.089844 C 200.535156 145.332031 199.238281 146.046875 198.199219 147.023438 C 196.886719 148.253906 195.882812 149.789062 195.128906 151.421875 C 193.359375 155.203125 193 159.515625 193.441406 163.632812 C 193.839844 167.386719 195.269531 171.117188 197.878906 173.875 C 199.285156 175.375 201.285156 176.363281 203.359375 176.265625 C 205.421875 176.242188 207.335938 175.128906 208.683594 173.597656 C 211.257812 170.675781 212.605469 166.820312 212.933594 162.960938 C 213.265625 159.078125 212.84375 155.042969 211.183594 151.488281 C 210.335938 149.664062 209.214844 147.914062 207.652344 146.632812 C 206.097656 145.300781 203.941406 144.746094 201.9375 145.089844 Z M 223.515625 105.445312 C 231.910156 104.359375 240.785156 106.703125 247.355469 112.15625 C 248.921875 113.519531 250.472656 114.921875 251.832031 116.507812 C 254.097656 119.125 256.007812 122.042969 257.65625 125.09375 C 259.785156 129.074219 261.410156 133.328125 262.457031 137.726562 C 264.566406 146.796875 264.398438 156.335938 262.433594 165.417969 C 261.523438 169.648438 260.222656 173.808594 258.398438 177.730469 C 255.882812 183.164062 252.472656 188.195312 248.242188 192.410156 C 245.75 195.125 242.816406 197.394531 239.683594 199.300781 C 236.078125 201.5 232.03125 202.976562 227.855469 203.5625 C 219.210938 204.789062 210.074219 202.207031 203.402344 196.5 C 197.328125 191.328125 193.101562 184.257812 190.328125 176.804688 C 193.824219 163.785156 193.644531 149.925781 190.699219 136.816406 C 190.667969 136.667969 190.6875 136.523438 190.75 136.382812 C 193.214844 129.074219 197.273438 122.292969 202.675781 116.816406 C 205.253906 114.160156 208.109375 111.753906 211.277344 109.84375 C 215.011719 107.570312 219.179688 105.992188 223.515625 105.445312 " fill-opacity="1" fill-rule="nonzero"/><path fill="#ffffff" d="M 151.359375 150.589844 C 152.03125 150.441406 152.746094 150.617188 153.296875 151.023438 C 154.15625 151.636719 154.636719 152.636719 154.953125 153.621094 C 155.472656 155.292969 155.414062 157.136719 154.828125 158.785156 C 154.523438 159.617188 154.042969 160.402344 153.351562 160.964844 C 152.675781 161.527344 151.683594 161.667969 150.878906 161.3125 C 150.207031 160.996094 149.695312 160.414062 149.308594 159.785156 C 148.378906 158.152344 148.15625 156.160156 148.539062 154.328125 C 148.765625 153.242188 149.195312 152.160156 149.980469 151.359375 C 150.347656 150.96875 150.832031 150.691406 151.359375 150.589844 " fill-opacity="1" fill-rule="nonzero"/><path fill="#ffffff" d="M 199.546875 150.941406 C 200.074219 150.8125 200.648438 150.890625 201.113281 151.175781 C 201.839844 151.609375 202.304688 152.367188 202.613281 153.140625 C 203.273438 154.816406 203.234375 156.761719 202.511719 158.410156 C 202.226562 159.035156 201.835938 159.628906 201.28125 160.042969 C 200.664062 160.511719 199.773438 160.605469 199.09375 160.222656 C 198.289062 159.78125 197.765625 158.964844 197.445312 158.125 C 196.78125 156.382812 196.859375 154.355469 197.671875 152.679688 C 198.054688 151.898438 198.671875 151.152344 199.546875 150.941406 " fill-opacity="1" fill-rule="nonzero"/><path fill="#ffffff" d="M 199.066406 162.996094 C 199.539062 162.789062 200.15625 162.871094 200.492188 163.289062 C 201.523438 164.515625 201.519531 166.453125 200.582031 167.730469 C 200.179688 168.292969 199.261719 168.46875 198.757812 167.945312 C 197.746094 166.933594 197.636719 165.289062 198.15625 164 C 198.292969 163.546875 198.628906 163.164062 199.066406 162.996094 " fill-opacity="1" fill-rule="nonzero"/><path fill="#ffffff" d="M 150.878906 164.4375 C 151.382812 164.269531 151.964844 164.410156 152.351562 164.777344 C 152.863281 165.242188 153.109375 165.933594 153.226562 166.605469 C 153.421875 167.691406 153.253906 168.875 152.636719 169.796875 C 152.316406 170.257812 151.777344 170.640625 151.195312 170.5625 C 150.582031 170.503906 150.132812 169.988281 149.851562 169.476562 C 149.335938 168.46875 149.253906 167.265625 149.550781 166.183594 C 149.730469 165.457031 150.15625 164.710938 150.878906 164.4375 " fill-opacity="1" fill-rule="nonzero"/><path fill="#ffffff" d="M 102.992188 229.660156 C 104.460938 230.847656 105.890625 232.078125 107.398438 233.210938 C 112.613281 237.167969 118.328125 240.410156 124.265625 243.117188 C 124.761719 245.929688 125.375 248.714844 125.988281 251.5 C 127.640625 259.089844 129.308594 266.679688 130.898438 274.28125 C 126.878906 273.65625 122.910156 272.761719 118.898438 272.097656 C 114.578125 265.074219 111.226562 257.480469 108.527344 249.683594 C 107.433594 246.625 106.492188 243.511719 105.652344 240.375 C 105.558594 240.109375 105.484375 239.839844 105.421875 239.566406 C 105.324219 239.304688 105.257812 239.03125 105.195312 238.761719 C 104.675781 236.976562 104.234375 235.167969 103.828125 233.355469 C 103.519531 232.128906 103.289062 230.886719 102.992188 229.660156 " fill-opacity="1" fill-rule="nonzero"/><path fill="#ffffff" d="M 230.003906 249.816406 C 235.996094 247.90625 241.921875 245.714844 247.535156 242.84375 C 247.136719 246.65625 246.480469 250.429688 245.917969 254.21875 C 245.03125 260.515625 244.082031 266.808594 243.132812 273.097656 C 235.8125 274.445312 228.460938 275.628906 221.066406 276.484375 C 221.4375 271.964844 221.886719 267.453125 222.289062 262.9375 C 222.660156 259.15625 223.027344 255.371094 223.320312 251.578125 C 225.558594 251.039062 227.796875 250.488281 230.003906 249.816406 " fill-opacity="1" fill-rule="nonzero"/><path fill="#ffffff" d="M 127.839844 244.65625 C 137.21875 248.46875 147.078125 250.996094 157.058594 252.574219 C 157.1875 253.648438 157.164062 254.738281 157.246094 255.820312 C 157.679688 263.125 158.171875 270.421875 158.5625 277.726562 C 150.445312 277.050781 142.351562 276.078125 134.292969 274.867188 C 133.097656 269.59375 132.011719 264.296875 130.863281 259.015625 C 129.898438 254.21875 128.777344 249.457031 127.839844 244.65625 " fill-opacity="1" fill-rule="nonzero"/><path fill="#ffffff" d="M 192.835938 255.152344 C 201.96875 255.070312 211.09375 254.101562 220.054688 252.3125 C 219.703125 256.789062 219.242188 261.257812 218.863281 265.734375 C 218.527344 269.457031 218.210938 273.183594 217.808594 276.902344 C 209.4375 277.804688 201.027344 278.296875 192.613281 278.605469 C 192.59375 273.921875 192.667969 269.238281 192.746094 264.554688 C 192.792969 261.417969 192.773438 258.285156 192.835938 255.152344 " fill-opacity="1" fill-rule="nonzero"/><path fill="#ffffff" d="M 160.285156 253.054688 C 170.007812 254.40625 179.816406 255.050781 189.628906 255.148438 C 189.566406 258.285156 189.601562 261.417969 189.511719 264.554688 C 189.554688 267.085938 189.480469 269.617188 189.488281 272.152344 C 189.472656 274.332031 189.449219 276.511719 189.367188 278.691406 C 184.957031 278.789062 180.546875 278.734375 176.136719 278.640625 C 171.335938 278.53125 166.539062 278.3125 161.75 277.976562 C 161.210938 269.671875 160.820312 261.359375 160.285156 253.054688 " fill-opacity="1" fill-rule="nonzero"/><path fill="#ffffff" d="M 227.378906 278.945312 C 235.09375 277.757812 242.800781 276.503906 250.445312 274.933594 C 252.007812 284.113281 253.53125 293.300781 255.082031 302.484375 C 246.988281 304.910156 238.800781 307.039062 230.519531 308.707031 C 229.476562 298.785156 228.40625 288.867188 227.378906 278.945312 " fill-opacity="1" fill-rule="nonzero"/><path fill="#ffffff" d="M 121.328125 275.871094 C 126.671875 276.699219 131.972656 277.761719 137.324219 278.53125 C 137.054688 283.273438 136.574219 288 136.28125 292.738281 C 130.554688 287.851562 125.558594 282.117188 121.328125 275.871094 " fill-opacity="1" fill-rule="nonzero"/><path fill="#ffffff" d="M 140.492188 279.003906 C 142.851562 279.191406 145.1875 279.578125 147.542969 279.832031 C 153.320312 280.507812 159.121094 280.988281 164.925781 281.410156 C 164.5 290.175781 163.972656 298.9375 163.578125 307.707031 C 159.84375 306.492188 156.160156 305.101562 152.605469 303.414062 C 147.871094 301.117188 143.378906 298.308594 139.191406 295.101562 C 139.695312 289.742188 140.035156 284.367188 140.492188 279.003906 " fill-opacity="1" fill-rule="nonzero"/><path fill="#ffffff" d="M 203.691406 281.269531 C 210.558594 280.878906 217.402344 280.15625 224.234375 279.363281 C 225.296875 289.34375 226.371094 299.324219 227.410156 309.3125 C 222.308594 310.234375 217.171875 310.976562 212.019531 311.511719 C 207.867188 311.921875 203.707031 312.296875 199.535156 312.351562 C 199.269531 302.105469 199.019531 291.859375 198.730469 281.617188 C 200.375 281.4375 202.035156 281.367188 203.691406 281.269531 " fill-opacity="1" fill-rule="nonzero"/><path fill="#ffffff" d="M 168.0625 281.585938 C 169.882812 281.53125 171.699219 281.6875 173.515625 281.730469 C 180.871094 282.015625 188.230469 281.859375 195.582031 281.734375 C 195.875 291.945312 196.152344 302.160156 196.351562 312.375 C 186.351562 312.421875 176.316406 311.289062 166.660156 308.625 C 167.101562 299.609375 167.597656 290.601562 168.0625 281.585938 " fill-opacity="1" fill-rule="nonzero"/></svg>