<svg xmlns="http://www.w3.org/2000/svg" xmlns:xlink="http://www.w3.org/1999/xlink" width="600" zoomAndPan="magnify" viewBox="0 0 450 299.999988" height="400" preserveAspectRatio="xMidYMid meet" version="1.0"><defs><clipPath id="02d064041a"><path d="M 0 144.957031 L 450 144.957031 L 450 155.042969 L 0 155.042969 Z M 0 144.957031 " clip-rule="nonzero"/></clipPath><clipPath id="555e19120d"><path d="M 205.136719 7.523438 L 244.863281 7.523438 L 244.863281 47.246094 L 205.136719 47.246094 Z M 205.136719 7.523438 " clip-rule="nonzero"/></clipPath><clipPath id="efbe7eb9b3"><path d="M 225 7.523438 C 214.03125 7.523438 205.136719 16.414062 205.136719 27.386719 C 205.136719 38.355469 214.03125 47.246094 225 47.246094 C 235.96875 47.246094 244.863281 38.355469 244.863281 27.386719 C 244.863281 16.414062 235.96875 7.523438 225 7.523438 Z M 225 7.523438 " clip-rule="nonzero"/></clipPath><clipPath id="4b972f87c8"><path d="M 219.960938 27.378906 L 230.046875 27.378906 L 230.046875 149.996094 L 219.960938 149.996094 Z M 219.960938 27.378906 " clip-rule="nonzero"/></clipPath></defs><g clip-path="url(#02d064041a)"><path fill="#8a8a8a" d="M -7.578125 144.957031 L 457.578125 144.957031 L 457.578125 155.042969 L -7.578125 155.042969 Z M -7.578125 144.957031 " fill-opacity="1" fill-rule="nonzero"/></g><g clip-path="url(#555e19120d)"><g clip-path="url(#efbe7eb9b3)"><path fill="#8a8a8a" d="M 205.136719 7.523438 L 244.863281 7.523438 L 244.863281 47.246094 L 205.136719 47.246094 Z M 205.136719 7.523438 " fill-opacity="1" fill-rule="nonzero"/></g></g><g clip-path="url(#4b972f87c8)"><path fill="#8a8a8a" d="M 219.960938 149.996094 L 219.960938 27.394531 L 230.046875 27.394531 L 230.046875 149.996094 Z M 219.960938 149.996094 " fill-opacity="1" fill-rule="nonzero"/></g></svg>