<svg xmlns="http://www.w3.org/2000/svg" xmlns:xlink="http://www.w3.org/1999/xlink" width="600" zoomAndPan="magnify" viewBox="0 0 450 299.999988" height="400" preserveAspectRatio="xMidYMid meet" version="1.0"><defs><clipPath id="b384cb8cae"><path d="M 0 139.914062 L 450 139.914062 L 450 160.085938 L 0 160.085938 Z M 0 139.914062 " clip-rule="nonzero"/></clipPath><clipPath id="21f8f19199"><path d="M 214.910156 65.671875 L 235.078125 65.671875 L 235.078125 160.089844 L 214.910156 160.089844 Z M 214.910156 65.671875 " clip-rule="nonzero"/></clipPath><clipPath id="f196eb70e9"><path d="M 193.382812 3.976562 L 256.617188 3.976562 L 256.617188 67.207031 L 193.382812 67.207031 Z M 193.382812 3.976562 " clip-rule="nonzero"/></clipPath><clipPath id="fa1e4e25e0"><path d="M 225 3.976562 C 207.539062 3.976562 193.382812 18.132812 193.382812 35.59375 C 193.382812 53.054688 207.539062 67.207031 225 67.207031 C 242.460938 67.207031 256.617188 53.054688 256.617188 35.59375 C 256.617188 18.132812 242.460938 3.976562 225 3.976562 Z M 225 3.976562 " clip-rule="nonzero"/></clipPath></defs><g clip-path="url(#b384cb8cae)"><path fill="#8a8a8a" d="M -7.578125 139.914062 L 457.539062 139.914062 L 457.539062 160.085938 L -7.578125 160.085938 Z M -7.578125 139.914062 " fill-opacity="1" fill-rule="nonzero"/></g><g clip-path="url(#21f8f19199)"><path fill="#8a8a8a" d="M 235.078125 65.671875 L 235.078125 160.066406 L 214.910156 160.066406 L 214.910156 65.671875 Z M 235.078125 65.671875 " fill-opacity="1" fill-rule="nonzero"/></g><g clip-path="url(#f196eb70e9)"><g clip-path="url(#fa1e4e25e0)"><path fill="#8a8a8a" d="M 193.382812 3.976562 L 256.617188 3.976562 L 256.617188 67.207031 L 193.382812 67.207031 Z M 193.382812 3.976562 " fill-opacity="1" fill-rule="nonzero"/></g></g></svg>