<svg xmlns="http://www.w3.org/2000/svg" xmlns:xlink="http://www.w3.org/1999/xlink" width="1280" zoomAndPan="magnify" viewBox="0 0 960 540.000001" height="720" preserveAspectRatio="xMidYMid meet" version="1.0"><defs><clipPath id="264a5b76d3"><path d="M 149.410156 485.101562 L 251.222656 485.101562 L 251.222656 514 L 149.410156 514 Z M 149.410156 485.101562 " clip-rule="nonzero"/></clipPath><clipPath id="185f3ef6d8"><path d="M 774.953125 56 L 802 56 L 802 83.5625 L 774.953125 83.5625 Z M 774.953125 56 " clip-rule="nonzero"/></clipPath><clipPath id="f04d134346"><path d="M 807 24.421875 L 834.09375 24.421875 L 834.09375 52 L 807 52 Z M 807 24.421875 " clip-rule="nonzero"/></clipPath><clipPath id="a42cf0e837"><path d="M 745.398438 445.417969 L 749 445.417969 L 749 449 L 745.398438 449 Z M 745.398438 445.417969 " clip-rule="nonzero"/></clipPath><clipPath id="ab06633d8c"><path d="M 745.398438 464 L 749 464 L 749 468 L 745.398438 468 Z M 745.398438 464 " clip-rule="nonzero"/></clipPath><clipPath id="d4949a13df"><path d="M 745.398438 483 L 749 483 L 749 487 L 745.398438 487 Z M 745.398438 483 " clip-rule="nonzero"/></clipPath><clipPath id="d1077092b0"><path d="M 745.398438 502 L 749 502 L 749 506 L 745.398438 506 Z M 745.398438 502 " clip-rule="nonzero"/></clipPath><clipPath id="891bacab00"><path d="M 745.398438 521 L 749 521 L 749 525 L 745.398438 525 Z M 745.398438 521 " clip-rule="nonzero"/></clipPath><clipPath id="3f746dbcd3"><path d="M 764 445.417969 L 768 445.417969 L 768 449 L 764 449 Z M 764 445.417969 " clip-rule="nonzero"/></clipPath><clipPath id="7074ed6ce3"><path d="M 783 445.417969 L 787 445.417969 L 787 449 L 783 449 Z M 783 445.417969 " clip-rule="nonzero"/></clipPath><clipPath id="25feba6586"><path d="M 803 445.417969 L 806 445.417969 L 806 449 L 803 449 Z M 803 445.417969 " clip-rule="nonzero"/></clipPath><clipPath id="8b241b3e0a"><path d="M 822 445.417969 L 826 445.417969 L 826 449 L 822 449 Z M 822 445.417969 " clip-rule="nonzero"/></clipPath><clipPath id="28c6d4e4f5"><path d="M 841 445.417969 L 845 445.417969 L 845 449 L 841 449 Z M 841 445.417969 " clip-rule="nonzero"/></clipPath><clipPath id="d28695aa8d"><path d="M 860 445.417969 L 863.679688 445.417969 L 863.679688 449 L 860 449 Z M 860 445.417969 " clip-rule="nonzero"/></clipPath><clipPath id="9e818a2f2f"><path d="M 860 464 L 863.679688 464 L 863.679688 468 L 860 468 Z M 860 464 " clip-rule="nonzero"/></clipPath><clipPath id="3e6baae77f"><path d="M 860 483 L 863.679688 483 L 863.679688 487 L 860 487 Z M 860 483 " clip-rule="nonzero"/></clipPath><clipPath id="d43c0c7008"><path d="M 860 502 L 863.679688 502 L 863.679688 506 L 860 506 Z M 860 502 " clip-rule="nonzero"/></clipPath><clipPath id="e04c85b695"><path d="M 860 521 L 863.679688 521 L 863.679688 525 L 860 525 Z M 860 521 " clip-rule="nonzero"/></clipPath><clipPath id="3a6cec7006"><path d="M 394.632812 11 L 398 11 L 398 14 L 394.632812 14 Z M 394.632812 11 " clip-rule="nonzero"/></clipPath><clipPath id="f32d0f50dc"><path d="M 394.632812 28 L 398 28 L 398 32 L 394.632812 32 Z M 394.632812 28 " clip-rule="nonzero"/></clipPath><clipPath id="467e07adb8"><path d="M 394.632812 46 L 398 46 L 398 50 L 394.632812 50 Z M 394.632812 46 " clip-rule="nonzero"/></clipPath><clipPath id="2a2c4fddbd"><path d="M 394.632812 64 L 398 64 L 398 67 L 394.632812 67 Z M 394.632812 64 " clip-rule="nonzero"/></clipPath><clipPath id="d35f786c8e"><path d="M 501 11 L 503.929688 11 L 503.929688 14 L 501 14 Z M 501 11 " clip-rule="nonzero"/></clipPath><clipPath id="4b7efbe470"><path d="M 501 28 L 503.929688 28 L 503.929688 32 L 501 32 Z M 501 28 " clip-rule="nonzero"/></clipPath><clipPath id="bb78f5e7ea"><path d="M 501 46 L 503.929688 46 L 503.929688 50 L 501 50 Z M 501 46 " clip-rule="nonzero"/></clipPath><clipPath id="1f468829d8"><path d="M 501 64 L 503.929688 64 L 503.929688 67 L 501 67 Z M 501 64 " clip-rule="nonzero"/></clipPath></defs><g clip-path="url(#264a5b76d3)"><path fill="#ffffff" d="M 157.34375 485.113281 L 164.484375 485.113281 L 156.550781 513.992188 L 149.410156 513.992188 Z M 244.140625 485.113281 L 251.28125 485.113281 L 243.347656 513.992188 L 236.207031 513.992188 Z M 231.765625 485.113281 L 238.902344 485.113281 L 230.96875 513.992188 L 223.828125 513.992188 Z M 219.386719 485.113281 L 226.527344 485.113281 L 218.59375 513.992188 L 211.453125 513.992188 Z M 206.851562 485.113281 L 214.152344 485.113281 L 206.21875 513.992188 L 199.078125 513.992188 Z M 194.476562 485.113281 L 201.617188 485.113281 L 193.839844 513.992188 L 186.542969 513.992188 Z M 182.097656 485.113281 L 189.238281 485.113281 L 181.304688 513.992188 L 174.164062 513.992188 Z M 169.722656 485.113281 L 176.863281 485.113281 L 168.929688 513.992188 L 161.789062 513.992188 Z M 169.722656 485.113281 " fill-opacity="1" fill-rule="evenodd"/></g><g clip-path="url(#185f3ef6d8)"><path fill="#ffffff" d="M 801.632812 83.375 L 787.578125 83.375 L 787.578125 70.753906 L 774.953125 70.753906 L 774.953125 56.699219 L 801.632812 56.699219 Z M 789.011719 81.941406 L 800.199219 81.941406 L 800.199219 58.125 L 776.386719 58.125 L 776.386719 69.316406 L 789.011719 69.316406 Z M 789.011719 81.941406 " fill-opacity="1" fill-rule="nonzero"/></g><path fill="#ffffff" d="M 817.8125 67.210938 L 803.757812 67.210938 L 803.757812 54.589844 L 791.136719 54.589844 L 791.136719 40.53125 L 817.8125 40.53125 Z M 805.191406 65.777344 L 816.378906 65.777344 L 816.378906 41.960938 L 792.566406 41.960938 L 792.566406 53.152344 L 805.1875 53.152344 L 805.1875 65.777344 Z M 805.191406 65.777344 " fill-opacity="1" fill-rule="nonzero"/><g clip-path="url(#f04d134346)"><path fill="#ffffff" d="M 834.046875 51.101562 L 819.992188 51.101562 L 819.992188 38.476562 L 807.371094 38.476562 L 807.371094 24.421875 L 834.046875 24.421875 Z M 821.425781 49.667969 L 832.617188 49.667969 L 832.617188 25.855469 L 808.800781 25.855469 L 808.800781 37.046875 L 821.421875 37.046875 L 821.421875 49.667969 Z M 821.425781 49.667969 " fill-opacity="1" fill-rule="nonzero"/></g><g clip-path="url(#a42cf0e837)"><path fill="#ffffff" d="M 745.417969 445.421875 L 748.410156 445.421875 L 748.410156 448.410156 L 745.417969 448.410156 Z M 745.417969 445.421875 " fill-opacity="1" fill-rule="nonzero"/></g><g clip-path="url(#ab06633d8c)"><path fill="#ffffff" d="M 745.417969 464.550781 L 748.410156 464.550781 L 748.410156 467.539062 L 745.417969 467.539062 Z M 745.417969 464.550781 " fill-opacity="1" fill-rule="nonzero"/></g><g clip-path="url(#d4949a13df)"><path fill="#ffffff" d="M 745.417969 483.679688 L 748.410156 483.679688 L 748.410156 486.671875 L 745.417969 486.671875 Z M 745.417969 483.679688 " fill-opacity="1" fill-rule="nonzero"/></g><g clip-path="url(#d1077092b0)"><path fill="#ffffff" d="M 745.417969 502.8125 L 748.410156 502.8125 L 748.410156 505.800781 L 745.417969 505.800781 Z M 745.417969 502.8125 " fill-opacity="1" fill-rule="nonzero"/></g><g clip-path="url(#891bacab00)"><path fill="#ffffff" d="M 745.417969 521.941406 L 748.410156 521.941406 L 748.410156 524.929688 L 745.417969 524.929688 Z M 745.417969 521.941406 " fill-opacity="1" fill-rule="nonzero"/></g><g clip-path="url(#3f746dbcd3)"><path fill="#ffffff" d="M 764.617188 445.421875 L 767.605469 445.421875 L 767.605469 448.410156 L 764.617188 448.410156 Z M 764.617188 445.421875 " fill-opacity="1" fill-rule="nonzero"/></g><path fill="#ffffff" d="M 764.617188 464.550781 L 767.605469 464.550781 L 767.605469 467.539062 L 764.617188 467.539062 Z M 764.617188 464.550781 " fill-opacity="1" fill-rule="nonzero"/><path fill="#ffffff" d="M 764.617188 483.679688 L 767.605469 483.679688 L 767.605469 486.671875 L 764.617188 486.671875 Z M 764.617188 483.679688 " fill-opacity="1" fill-rule="nonzero"/><path fill="#ffffff" d="M 764.617188 502.8125 L 767.605469 502.8125 L 767.605469 505.800781 L 764.617188 505.800781 Z M 764.617188 502.8125 " fill-opacity="1" fill-rule="nonzero"/><path fill="#ffffff" d="M 764.617188 521.941406 L 767.605469 521.941406 L 767.605469 524.929688 L 764.617188 524.929688 Z M 764.617188 521.941406 " fill-opacity="1" fill-rule="nonzero"/><g clip-path="url(#7074ed6ce3)"><path fill="#ffffff" d="M 783.8125 445.421875 L 786.800781 445.421875 L 786.800781 448.410156 L 783.8125 448.410156 Z M 783.8125 445.421875 " fill-opacity="1" fill-rule="nonzero"/></g><path fill="#ffffff" d="M 783.8125 464.550781 L 786.800781 464.550781 L 786.800781 467.539062 L 783.8125 467.539062 Z M 783.8125 464.550781 " fill-opacity="1" fill-rule="nonzero"/><path fill="#ffffff" d="M 783.8125 483.679688 L 786.800781 483.679688 L 786.800781 486.671875 L 783.8125 486.671875 Z M 783.8125 483.679688 " fill-opacity="1" fill-rule="nonzero"/><path fill="#ffffff" d="M 783.8125 502.8125 L 786.800781 502.8125 L 786.800781 505.800781 L 783.8125 505.800781 Z M 783.8125 502.8125 " fill-opacity="1" fill-rule="nonzero"/><path fill="#ffffff" d="M 783.8125 521.941406 L 786.800781 521.941406 L 786.800781 524.929688 L 783.8125 524.929688 Z M 783.8125 521.941406 " fill-opacity="1" fill-rule="nonzero"/><g clip-path="url(#25feba6586)"><path fill="#ffffff" d="M 803.007812 445.421875 L 806 445.421875 L 806 448.410156 L 803.007812 448.410156 Z M 803.007812 445.421875 " fill-opacity="1" fill-rule="nonzero"/></g><path fill="#ffffff" d="M 803.007812 464.550781 L 806 464.550781 L 806 467.539062 L 803.007812 467.539062 Z M 803.007812 464.550781 " fill-opacity="1" fill-rule="nonzero"/><path fill="#ffffff" d="M 803.007812 483.679688 L 806 483.679688 L 806 486.671875 L 803.007812 486.671875 Z M 803.007812 483.679688 " fill-opacity="1" fill-rule="nonzero"/><path fill="#ffffff" d="M 803.007812 502.8125 L 806 502.8125 L 806 505.800781 L 803.007812 505.800781 Z M 803.007812 502.8125 " fill-opacity="1" fill-rule="nonzero"/><path fill="#ffffff" d="M 803.007812 521.941406 L 806 521.941406 L 806 524.929688 L 803.007812 524.929688 Z M 803.007812 521.941406 " fill-opacity="1" fill-rule="nonzero"/><g clip-path="url(#8b241b3e0a)"><path fill="#ffffff" d="M 822.207031 445.421875 L 825.195312 445.421875 L 825.195312 448.410156 L 822.207031 448.410156 Z M 822.207031 445.421875 " fill-opacity="1" fill-rule="nonzero"/></g><path fill="#ffffff" d="M 822.207031 464.550781 L 825.195312 464.550781 L 825.195312 467.539062 L 822.207031 467.539062 Z M 822.207031 464.550781 " fill-opacity="1" fill-rule="nonzero"/><path fill="#ffffff" d="M 822.207031 483.679688 L 825.195312 483.679688 L 825.195312 486.671875 L 822.207031 486.671875 Z M 822.207031 483.679688 " fill-opacity="1" fill-rule="nonzero"/><path fill="#ffffff" d="M 822.207031 502.8125 L 825.195312 502.8125 L 825.195312 505.800781 L 822.207031 505.800781 Z M 822.207031 502.8125 " fill-opacity="1" fill-rule="nonzero"/><path fill="#ffffff" d="M 822.207031 521.941406 L 825.195312 521.941406 L 825.195312 524.929688 L 822.207031 524.929688 Z M 822.207031 521.941406 " fill-opacity="1" fill-rule="nonzero"/><g clip-path="url(#28c6d4e4f5)"><path fill="#ffffff" d="M 841.402344 445.421875 L 844.390625 445.421875 L 844.390625 448.410156 L 841.402344 448.410156 Z M 841.402344 445.421875 " fill-opacity="1" fill-rule="nonzero"/></g><path fill="#ffffff" d="M 841.402344 464.550781 L 844.390625 464.550781 L 844.390625 467.539062 L 841.402344 467.539062 Z M 841.402344 464.550781 " fill-opacity="1" fill-rule="nonzero"/><path fill="#ffffff" d="M 841.402344 483.679688 L 844.390625 483.679688 L 844.390625 486.671875 L 841.402344 486.671875 Z M 841.402344 483.679688 " fill-opacity="1" fill-rule="nonzero"/><path fill="#ffffff" d="M 841.402344 502.8125 L 844.390625 502.8125 L 844.390625 505.800781 L 841.402344 505.800781 Z M 841.402344 502.8125 " fill-opacity="1" fill-rule="nonzero"/><path fill="#ffffff" d="M 841.402344 521.941406 L 844.390625 521.941406 L 844.390625 524.929688 L 841.402344 524.929688 Z M 841.402344 521.941406 " fill-opacity="1" fill-rule="nonzero"/><g clip-path="url(#d28695aa8d)"><path fill="#ffffff" d="M 860.597656 445.421875 L 863.589844 445.421875 L 863.589844 448.410156 L 860.597656 448.410156 Z M 860.597656 445.421875 " fill-opacity="1" fill-rule="nonzero"/></g><g clip-path="url(#9e818a2f2f)"><path fill="#ffffff" d="M 860.597656 464.550781 L 863.589844 464.550781 L 863.589844 467.539062 L 860.597656 467.539062 Z M 860.597656 464.550781 " fill-opacity="1" fill-rule="nonzero"/></g><g clip-path="url(#3e6baae77f)"><path fill="#ffffff" d="M 860.597656 483.679688 L 863.589844 483.679688 L 863.589844 486.671875 L 860.597656 486.671875 Z M 860.597656 483.679688 " fill-opacity="1" fill-rule="nonzero"/></g><g clip-path="url(#d43c0c7008)"><path fill="#ffffff" d="M 860.597656 502.8125 L 863.589844 502.8125 L 863.589844 505.800781 L 860.597656 505.800781 Z M 860.597656 502.8125 " fill-opacity="1" fill-rule="nonzero"/></g><g clip-path="url(#e04c85b695)"><path fill="#ffffff" d="M 860.597656 521.941406 L 863.589844 521.941406 L 863.589844 524.929688 L 860.597656 524.929688 Z M 860.597656 521.941406 " fill-opacity="1" fill-rule="nonzero"/></g><g clip-path="url(#3a6cec7006)"><path fill="#ffffff" d="M 394.648438 11.011719 L 397.417969 11.011719 L 397.417969 13.78125 L 394.648438 13.78125 Z M 394.648438 11.011719 " fill-opacity="1" fill-rule="nonzero"/></g><g clip-path="url(#f32d0f50dc)"><path fill="#ffffff" d="M 394.648438 28.734375 L 397.417969 28.734375 L 397.417969 31.503906 L 394.648438 31.503906 Z M 394.648438 28.734375 " fill-opacity="1" fill-rule="nonzero"/></g><g clip-path="url(#467e07adb8)"><path fill="#ffffff" d="M 394.648438 46.457031 L 397.417969 46.457031 L 397.417969 49.226562 L 394.648438 49.226562 Z M 394.648438 46.457031 " fill-opacity="1" fill-rule="nonzero"/></g><g clip-path="url(#2a2c4fddbd)"><path fill="#ffffff" d="M 394.648438 64.179688 L 397.417969 64.179688 L 397.417969 66.949219 L 394.648438 66.949219 Z M 394.648438 64.179688 " fill-opacity="1" fill-rule="nonzero"/></g><path fill="#ffffff" d="M 412.429688 11.011719 L 415.199219 11.011719 L 415.199219 13.78125 L 412.429688 13.78125 Z M 412.429688 11.011719 " fill-opacity="1" fill-rule="nonzero"/><path fill="#ffffff" d="M 412.429688 28.734375 L 415.199219 28.734375 L 415.199219 31.503906 L 412.429688 31.503906 Z M 412.429688 28.734375 " fill-opacity="1" fill-rule="nonzero"/><path fill="#ffffff" d="M 412.429688 46.457031 L 415.199219 46.457031 L 415.199219 49.226562 L 412.429688 49.226562 Z M 412.429688 46.457031 " fill-opacity="1" fill-rule="nonzero"/><path fill="#ffffff" d="M 412.429688 64.179688 L 415.199219 64.179688 L 415.199219 66.949219 L 412.429688 66.949219 Z M 412.429688 64.179688 " fill-opacity="1" fill-rule="nonzero"/><path fill="#ffffff" d="M 430.214844 11.011719 L 432.984375 11.011719 L 432.984375 13.78125 L 430.214844 13.78125 Z M 430.214844 11.011719 " fill-opacity="1" fill-rule="nonzero"/><path fill="#ffffff" d="M 430.214844 28.734375 L 432.984375 28.734375 L 432.984375 31.503906 L 430.214844 31.503906 Z M 430.214844 28.734375 " fill-opacity="1" fill-rule="nonzero"/><path fill="#ffffff" d="M 430.214844 46.457031 L 432.984375 46.457031 L 432.984375 49.226562 L 430.214844 49.226562 Z M 430.214844 46.457031 " fill-opacity="1" fill-rule="nonzero"/><path fill="#ffffff" d="M 430.214844 64.179688 L 432.984375 64.179688 L 432.984375 66.949219 L 430.214844 66.949219 Z M 430.214844 64.179688 " fill-opacity="1" fill-rule="nonzero"/><path fill="#ffffff" d="M 448 11.011719 L 450.769531 11.011719 L 450.769531 13.78125 L 448 13.78125 Z M 448 11.011719 " fill-opacity="1" fill-rule="nonzero"/><path fill="#ffffff" d="M 448 28.734375 L 450.769531 28.734375 L 450.769531 31.503906 L 448 31.503906 Z M 448 28.734375 " fill-opacity="1" fill-rule="nonzero"/><path fill="#ffffff" d="M 448 46.457031 L 450.769531 46.457031 L 450.769531 49.226562 L 448 49.226562 Z M 448 46.457031 " fill-opacity="1" fill-rule="nonzero"/><path fill="#ffffff" d="M 448 64.179688 L 450.769531 64.179688 L 450.769531 66.949219 L 448 66.949219 Z M 448 64.179688 " fill-opacity="1" fill-rule="nonzero"/><path fill="#ffffff" d="M 465.78125 11.011719 L 468.550781 11.011719 L 468.550781 13.78125 L 465.78125 13.78125 Z M 465.78125 11.011719 " fill-opacity="1" fill-rule="nonzero"/><path fill="#ffffff" d="M 465.78125 28.734375 L 468.550781 28.734375 L 468.550781 31.503906 L 465.78125 31.503906 Z M 465.78125 28.734375 " fill-opacity="1" fill-rule="nonzero"/><path fill="#ffffff" d="M 465.78125 46.457031 L 468.550781 46.457031 L 468.550781 49.226562 L 465.78125 49.226562 Z M 465.78125 46.457031 " fill-opacity="1" fill-rule="nonzero"/><path fill="#ffffff" d="M 465.78125 64.179688 L 468.550781 64.179688 L 468.550781 66.949219 L 465.78125 66.949219 Z M 465.78125 64.179688 " fill-opacity="1" fill-rule="nonzero"/><path fill="#ffffff" d="M 483.566406 11.011719 L 486.335938 11.011719 L 486.335938 13.78125 L 483.566406 13.78125 Z M 483.566406 11.011719 " fill-opacity="1" fill-rule="nonzero"/><path fill="#ffffff" d="M 483.566406 28.734375 L 486.335938 28.734375 L 486.335938 31.503906 L 483.566406 31.503906 Z M 483.566406 28.734375 " fill-opacity="1" fill-rule="nonzero"/><path fill="#ffffff" d="M 483.566406 46.457031 L 486.335938 46.457031 L 486.335938 49.226562 L 483.566406 49.226562 Z M 483.566406 46.457031 " fill-opacity="1" fill-rule="nonzero"/><path fill="#ffffff" d="M 483.566406 64.179688 L 486.335938 64.179688 L 486.335938 66.949219 L 483.566406 66.949219 Z M 483.566406 64.179688 " fill-opacity="1" fill-rule="nonzero"/><g clip-path="url(#d35f786c8e)"><path fill="#ffffff" d="M 501.351562 11.011719 L 504.121094 11.011719 L 504.121094 13.78125 L 501.351562 13.78125 Z M 501.351562 11.011719 " fill-opacity="1" fill-rule="nonzero"/></g><g clip-path="url(#4b7efbe470)"><path fill="#ffffff" d="M 501.351562 28.734375 L 504.121094 28.734375 L 504.121094 31.503906 L 501.351562 31.503906 Z M 501.351562 28.734375 " fill-opacity="1" fill-rule="nonzero"/></g><g clip-path="url(#bb78f5e7ea)"><path fill="#ffffff" d="M 501.351562 46.457031 L 504.121094 46.457031 L 504.121094 49.226562 L 501.351562 49.226562 Z M 501.351562 46.457031 " fill-opacity="1" fill-rule="nonzero"/></g><g clip-path="url(#1f468829d8)"><path fill="#ffffff" d="M 501.351562 64.179688 L 504.121094 64.179688 L 504.121094 66.949219 L 501.351562 66.949219 Z M 501.351562 64.179688 " fill-opacity="1" fill-rule="nonzero"/></g></svg>